<?xml version="1.0" encoding="iso-8859-1"?>
<!-- Generator: Adobe Illustrator 19.0.0, SVG Export Plug-In . SVG Version: 6.00 Build 0)  -->
<svg version="1.1" id="Capa_1" xmlns="http://www.w3.org/2000/svg" xmlns:xlink="http://www.w3.org/1999/xlink" x="0px" y="0px"
	 viewBox="0 0 480.001 480.001" style="enable-background:new 0 0 480.001 480.001;" xml:space="preserve">
<path style="fill:#2D9CCA;" d="M200.001,352.001c0,22.08-17.92,40-40,40c-7.28,0-14.16-1.92-20-5.36c-12-6.96-20-19.84-20-34.64
	c0,22.08-17.92,40-40,40s-40-17.92-40-40c0,19.36-13.76,35.52-32,39.2v80.8h232v-80
	C217.921,392.001,200.001,374.081,200.001,352.001z"/>
<path style="fill:#1B7DA4;" d="M472.001,391.201c-18.24-3.68-32-19.84-32-39.2c0,22.08-17.92,40-40,40s-40-17.92-40-40
	c0,14.8-8,27.68-20,34.64c-5.84,3.44-12.72,5.36-20,5.36c-22.08,0-40-17.92-40-40c0,22.08-17.92,40-40,40v80h232V391.201z"/>
<path style="fill:#A0D92A;" d="M192.721,248.001c-0.48-2.56-0.72-5.28-0.72-8c0-26.48,21.52-48,48-48s48,21.52,48,48
	c0,2.72-0.24,5.44-0.72,8h0.72l15.28,40.8c10.48-13.52,16.72-30.4,16.72-48.8c0-44.16-35.84-80-80-80s-80,35.84-80,80
	c0,18.4,6.24,35.28,16.72,48.8l15.28-40.8H192.721z"/>
<path style="fill:#FFFFFF;" d="M240.001,312.001v-16v-48h-24l-16,80l16-80h-23.28h-0.72l-15.28,40.8l-36.72,97.84
	c5.84,3.44,12.72,5.36,20,5.36c22.08,0,40-17.92,40-40c0,22.08,17.92,40,40,40v-64V312.001z"/>
<path style="fill:#D0DFEA;" d="M303.28,288.801l-15.28-40.8h-0.72h-23.28l16,80l-16-80h-24v48v16v16v64c22.08,0,40-17.92,40-40
	c0,22.08,17.92,40,40,40c7.28,0,14.16-1.92,20-5.36L303.28,288.801z"/>
<path style="fill:#F1E200;" d="M240.001,192.001c-26.48,0-48,21.52-48,48c0,2.72,0.24,5.44,0.72,8h23.28h24h24h23.28
	c0.48-2.56,0.72-5.28,0.72-8C288.001,213.521,266.481,192.001,240.001,192.001z"/>
<path style="fill:#59D541;" d="M440.001,96.001h8v-40l-88-48v48l-88-48v48l-88-48v48h-80l-8-40h-24l-8,40h-32v40h8h-8v32h192v-48h32
	v48h192v-32H440.001z M56.001,96.001h16H56.001z M88.001,96.001h16H88.001z M120.001,96.001h16H120.001z M152.001,96.001h16H152.001
	z M184.001,96.001h16H184.001z M280.001,96.001h16H280.001z M312.001,96.001h16H312.001z M344.001,96.001h16H344.001z
	 M376.001,96.001h16H376.001z M408.001,96.001h16H408.001z"/>
<rect x="224.001" y="80.001" style="fill:#F1E200;" width="32" height="48"/>
<path style="fill:#79BFCB;" d="M392.001,304.001h-24l24,32l8-16l40-24l24-56l-16-64l-40-16l-16,40l24,40v40L392.001,304.001z
	 M432.001,208.001l-8-16L432.001,208.001z"/>
<path style="fill:#D0DFEA;" d="M88.001,200.001l-16-40l-40,16l-16,64l24,56l40,24l8,16l24-32h-24l-24-24v-40L88.001,200.001z
	 M48.001,208.001l8-16L48.001,208.001z"/>
<path d="M473.583,383.357c-14.824-2.988-25.582-16.176-25.582-31.355c0-4.418-3.582-8-8-8s-8,3.582-8,8c0,17.645-14.355,32-32,32
	s-32-14.355-32-32c0-4.418-3.582-8-8-8s-8,3.582-8,8c0,8.173-3.05,15.716-8.378,21.52l-31.345-83.572
	c10.262-14.736,15.723-31.888,15.723-49.948c0-48.523-39.477-88-88-88s-88,39.477-88,88c0,18.06,5.461,35.212,15.723,49.948
	l-31.347,83.577c-5.321-5.796-8.376-13.345-8.376-21.525c0-4.418-3.582-8-8-8s-8,3.582-8,8c0,17.645-14.355,32-32,32
	s-32-14.355-32-32c0-4.418-3.582-8-8-8s-8,3.582-8,8c0,15.18-10.758,28.367-25.582,31.355c-3.734,0.754-6.418,4.035-6.418,7.844
	v80.801c0,4.418,3.582,8,8,8h464c4.418,0,8-3.582,8-8v-80.801C480.001,387.392,477.317,384.111,473.583,383.357z M326.157,383.348
	c-0.496,0.096-0.983,0.22-1.485,0.293c-1.536,0.222-3.093,0.36-4.671,0.36c-17.645,0-32-14.355-32-32c0-4.418-3.582-8-8-8
	s-8,3.582-8,8c0,17.645-14.355,32-32,32s-32-14.355-32-32c0-4.418-3.582-8-8-8s-8,3.582-8,8c0,17.645-14.355,32-32,32
	c-1.577,0-3.132-0.139-4.667-0.36c-0.515-0.074-1.015-0.203-1.523-0.301c-1.005-0.195-2.002-0.417-2.977-0.707
	c-0.235-0.07-0.462-0.162-0.695-0.237l34.009-90.671c0.017-0.042,0.047-0.076,0.063-0.119l13.336-35.605h8.695l-14.086,70.43
	l15.688,3.141l14.714-73.57h9.442v40h16v-40h9.442l14.714,73.57l15.688-3.141l-14.086-70.43h8.695l13.336,35.605
	c0.016,0.043,0.047,0.076,0.063,0.119l34.01,90.673c-0.226,0.073-0.446,0.161-0.674,0.229
	C328.197,382.924,327.181,383.15,326.157,383.348z M200.001,240.001c0-22.055,17.945-40,40-40s40,17.945,40,40H200.001z
	 M168.001,240.001c0-39.699,32.301-72,72-72s72,32.301,72,72c0,10.801-2.365,21.22-6.922,30.754l-9.555-25.477
	c0.178-1.757,0.477-3.472,0.477-5.277c0-30.879-25.121-56-56-56s-56,25.121-56,56c0,1.806,0.299,3.521,0.477,5.277l-9.555,25.477
	C170.366,261.221,168.001,250.803,168.001,240.001z M464.001,464.001h-448v-66.73c9.965-3.516,18.32-10.211,23.996-18.77
	c8.605,12.949,23.324,21.5,40.004,21.5c16.684,0,31.406-8.555,40.008-21.508c4.031,6.086,9.445,11.277,15.934,15.043
	c7.188,4.23,15.504,6.465,24.059,6.465c16.676,0,31.395-8.547,40-21.492c8.605,12.945,23.324,21.492,40,21.492
	s31.395-8.547,40-21.492c8.605,12.945,23.324,21.492,40,21.492c2.224,0,4.427-0.166,6.603-0.464
	c6.193-0.846,12.125-2.863,17.413-5.974c0.013-0.007,0.023-0.017,0.036-0.024c0.002-0.001,0.005-0.002,0.007-0.003
	s0.003-0.003,0.005-0.005c6.489-3.779,11.899-8.964,15.924-15.042c8.605,12.957,23.328,21.512,40.012,21.512
	c16.68,0,31.398-8.551,40.004-21.5c5.676,8.559,14.031,15.254,23.996,18.77V464.001z"/>
<path d="M456.001,120.001v-16v-16v-32c0-2.926-1.598-5.621-4.168-7.023l-88-48c-2.48-1.352-5.492-1.301-7.914,0.145
	c-2.43,1.441-3.918,4.055-3.918,6.879v34.523L275.833,0.978c-2.477-1.352-5.492-1.301-7.914,0.145
	c-2.43,1.441-3.918,4.055-3.918,6.879v34.523L187.833,0.978c-2.477-1.352-5.492-1.301-7.914,0.145
	c-2.43,1.441-3.918,4.055-3.918,6.879v40h-65.441l-6.715-33.57c-0.746-3.738-4.031-6.43-7.844-6.43h-24
	c-3.813,0-7.098,2.691-7.844,6.43l-6.715,33.57H32.001c-4.418,0-8,3.582-8,8v32v16v16h-24v16h32h192h32h192h32v-16H456.001z
	 M232.001,120.001v-32h16v32H232.001z M264.001,120.001v-40c0-4.418-3.582-8-8-8h-32c-4.418,0-8,3.582-8,8v40h-176v-16v-16v-24h24
	c3.813,0,7.098-2.691,7.844-6.43l6.715-33.57h10.883l6.715,33.57c0.746,3.738,4.031,6.43,7.844,6.43h80c4.418,0,8-3.582,8-8V21.478
	l76.168,41.547c2.48,1.355,5.488,1.293,7.914-0.145c2.43-1.441,3.918-4.055,3.918-6.879V21.478l76.168,41.547
	c2.48,1.355,5.492,1.293,7.914-0.145c2.43-1.441,3.918-4.055,3.918-6.879V21.478l72,39.273v27.25v16v16H264.001z"/>
<rect x="312.001" y="88.001" width="16" height="16"/>
<rect x="280.001" y="88.001" width="16" height="16"/>
<rect x="344.001" y="88.001" width="16" height="16"/>
<rect x="376.001" y="88.001" width="16" height="16"/>
<rect x="408.001" y="88.001" width="16" height="16"/>
<rect x="56.001" y="88.001" width="16" height="16"/>
<rect x="88.001" y="88.001" width="16" height="16"/>
<rect x="120.001" y="88.001" width="16" height="16"/>
<rect x="152.001" y="88.001" width="16" height="16"/>
<rect x="184.001" y="88.001" width="16" height="16"/>
<path d="M388.688,296.001h-20.688c-3.031,0-5.801,1.711-7.156,4.422s-1.063,5.953,0.758,8.379l24,32
	c1.516,2.023,3.895,3.199,6.398,3.199c0.238,0,0.477-0.012,0.719-0.031c2.762-0.25,5.195-1.91,6.438-4.391l6.957-13.918
	l38.004-22.801c1.441-0.863,2.574-2.164,3.234-3.707l24-56c0.691-1.609,0.832-3.395,0.41-5.094l-16-64
	c-0.625-2.492-2.406-4.531-4.789-5.488l-40-16c-4.117-1.633-8.762,0.355-10.402,4.457l-16,40c-0.926,2.324-0.715,4.945,0.57,7.09
	l22.859,38.098v34.473L388.688,296.001z M422.86,235.884l-21.957-36.598l11.555-28.887l28.773,11.512l14.355,57.414l-21.922,51.148
	l-37.781,22.668c-1.305,0.781-2.359,1.922-3.039,3.281l-2.211,4.422l-6.633-8.844h8c2.121,0,4.156-0.844,5.656-2.344l24-24
	c1.5-1.5,2.344-3.535,2.344-5.656v-40C424.001,238.552,423.606,237.13,422.86,235.884z"/>
<rect x="420.005" y="191.061" transform="matrix(-0.8944 0.4472 -0.4472 -0.8944 900.2691 187.4872)" width="16" height="17.888"/>
<path d="M94.86,204.118c1.285-2.145,1.496-4.766,0.57-7.09l-16-40c-1.641-4.094-6.277-6.078-10.402-4.457l-40,16
	c-2.383,0.957-4.164,2.996-4.789,5.488l-16,64c-0.422,1.699-0.281,3.484,0.41,5.094l24,56c0.66,1.543,1.793,2.844,3.234,3.707
	l38.004,22.801l6.957,13.918c1.242,2.48,3.676,4.141,6.438,4.391c0.242,0.02,0.48,0.031,0.719,0.031
	c2.504,0,4.883-1.176,6.398-3.199l24-32c1.82-2.426,2.113-5.668,0.758-8.379s-4.125-4.422-7.156-4.422H91.313l-19.313-19.313
	v-34.473L94.86,204.118z M58.344,285.658l24,24c1.5,1.5,3.535,2.344,5.656,2.344h8l-6.633,8.844l-2.211-4.422
	c-0.68-1.359-1.734-2.5-3.039-3.281l-37.781-22.668l-21.922-51.148l14.355-57.414L67.544,170.4l11.555,28.887l-21.957,36.598
	c-0.746,1.246-1.141,2.668-1.141,4.117v40C56.001,282.122,56.844,284.158,58.344,285.658z"/>
<rect x="43.056" y="192.001" transform="matrix(-0.4472 0.8944 -0.8944 -0.4472 254.1417 242.9338)" width="17.888" height="16"/>
<rect x="232.001" y="312.001" width="16" height="16"/>
<g>
</g>
<g>
</g>
<g>
</g>
<g>
</g>
<g>
</g>
<g>
</g>
<g>
</g>
<g>
</g>
<g>
</g>
<g>
</g>
<g>
</g>
<g>
</g>
<g>
</g>
<g>
</g>
<g>
</g>
</svg>
